:SAMPLES-PER-SECOND 30
:FULLY-SPECIFIED
:DEGREES
286
root  -52.4703 28.9476 -0.577834 17.5999 -17.338 9.59793
RightUpLeg  -64.2121 -13.9969 -14.6006
RightLeg  66.3784 -3.05688 -6.02629
RightFoot  -3.42311 0.0210201 1.08121
RightToes  -44.817 -0.258061 -0.340685
Spine  16.3606 0.728836 5.79656
Spine1  30.0845 4.43739 2.13198
HEad  12.1514 -3.41176 -2.74963
LeftShoulder1  0 -2.42657e-020 -4.95415e-022
LeftArm  -17.1423 -9.08185 -80.7251
LeftForeArm  29.0196 -44.5982 -10.0221
LeftHand  -0.28804 -9.55421 3.07793
RightShoulder  0 2.42657e-020 1.07489e-018
RightArm  -68.9029 29.712 21.525
RightForeArm  42.2945 46.0137 10.5314
RightHand  -0.746253 24.5349 -3.06177
LeftUpLeg  -27.0628 18.041 13.9425
LeftLeg  31.1062 -0.981554 -0.513161
LeftFoot  3.6073 0.0299329 -0.95054
LeftToes  -47.8722 1.71452e-006 7.46813e-008
287
root  -53.1885 28.8235 -0.900587 18.7771 -15.2937 7.55768
RightUpLeg  -63.4137 -3.98533 -20.2382
RightLeg  67.1057 -0.716147 -1.56993
RightFoot  -2.57627 0.0108086 0.858463
RightToes  -51.6339 -0.317431 -0.370988
Spine  16.2453 0.476795 6.02008
Spine1  29.895 3.31913 3.37155
HEad  13.0784 -2.71281 -3.75133
LeftShoulder1  0 -2.42657e-020 -4.95415e-022
LeftArm  -16.786 -9.78072 -82.5096
LeftForeArm  29.5249 -43.7306 -9.71836
LeftHand  -0.297748 -9.24585 3.31349
RightShoulder  0 2.42657e-020 1.07489e-018
RightArm  -59.1668 28.9414 26.475
RightForeArm  50.8767 49.244 11.8048
RightHand  -2.52951 23.5371 -11.7312
LeftUpLeg  -30.2968 18.5852 15.9509
LeftLeg  34.0622 1.08697 0.632827
LeftFoot  2.32028 0.0184264 -0.909893
LeftToes  -37.6589 1.71452e-006 7.46813e-008
288
root  -53.7812 28.3736 -1.23154 20.3072 -13.8329 5.60634
RightUpLeg  -64.9535 5.46909 -27.0704
RightLeg  67.5102 2.60028 5.13322
RightFoot  -3.87835 0.00614554 0.559159
RightToes  -61.8805 -0.412371 -0.40277
Spine  16.307 0.650679 6.67777
Spine1  30.0737 3.48882 4.35783
HEad  13.2418 -1.95067 -5.48453
LeftShoulder1  0 -2.42657e-020 -4.95415e-022
LeftArm  -16.1429 -10.6741 -84.6935
LeftForeArm  29.2428 -43.2949 -9.56946
LeftHand  -0.268969 -9.14727 2.99367
RightShoulder  0 2.42657e-020 1.07489e-018
RightArm  -50.5615 28.6105 30.4812
RightForeArm  55.4904 48.4693 11.4689
RightHand  -5.09765 24.4441 -22.8615
LeftUpLeg  -34.9928 17.4997 18.3456
LeftLeg  40.1529 -0.853549 -0.63624
LeftFoot  -0.171191 -0.00168545 -1.12815
LeftToes  -43.7744 1.71452e-006 7.46813e-008
289
root  -54.1084 27.6101 -1.48092 20.9421 -11.9111 5.37233
RightUpLeg  -65.659 10.3281 -33.5236
RightLeg  67.6404 5.48754 10.9392
RightFoot  -8.86864 -0.0828875 -0.691324
RightToes  -68.6154 -0.477223 -0.414226
Spine  16.9039 0.625518 7.35566
Spine1  31.0102 3.48302 4.90729
HEad  12.7505 -1.71704 -7.28377
LeftShoulder1  0 -2.42657e-020 -4.95415e-022
LeftArm  -14.6879 -12.4081 -86.8771
LeftForeArm  29.2158 -43.1749 -9.52884
LeftHand  -0.260436 -9.09077 2.90734
RightShoulder  0 2.42657e-020 1.07489e-018
RightArm  -45.791 29.0025 33.3948
RightForeArm  55.0075 44.7042 10.0276
RightHand  -6.31373 25.5845 -26.9429
LeftUpLeg  -40.9165 13.963 19.0053
LeftLeg  50.1189 -0.983874 -1.04182
LeftFoot  -5.00716 -0.056449 -1.291
LeftToes  -44.2769 1.71452e-006 7.46813e-008
290
root  -54.186 26.5615 -1.8767 22.0034 -9.63437 6.23349
RightUpLeg  -67.71 8.17718 -35.2913
RightLeg  71.3073 5.08891 11.9879
RightFoot  -13.5422 -0.234275 -1.59549
RightToes  -69.5327 -0.486146 -0.415194
Spine  17.4862 0.679047 8.35545
Spine1  31.6955 3.58225 6.14453
HEad  11.4213 -2.32213 -8.43071
LeftShoulder1  0 -2.42657e-020 -4.95415e-022
LeftArm  -12.0203 -14.8562 -89.5575
LeftForeArm  30.5531 -42.4608 -9.28969
LeftHand  -0.308081 -9.56701 3.31272
RightShoulder  0 2.42657e-020 1.07489e-018
RightArm  -47.262 31.6537 33.4572
RightForeArm  52.0995 33.9145 6.77728
RightHand  -5.77088 26.9506 -23.3924
LeftUpLeg  -49.0558 10.8563 17.5678
LeftLeg  62.3944 0.561654 0.912601
LeftFoot  -8.6474 -0.149292 -1.97441
LeftToes  -41.5564 1.71452e-006 7.46813e-008
291
root  -54.201 25.433 -2.35796 23.4065 -8.37325 6.34828
RightUpLeg  -71.2955 5.8429 -34.9999
RightLeg  75.8792 3.19818 9.60367
RightFoot  -17.0914 -0.258025 -1.3395
RightToes  -68.8139 -0.479152 -0.415799
Spine  18.0756 1.09668 9.48945
Spine1  32.4003 4.33148 7.68386
HEad  10.3217 -3.88894 -9.93368
LeftShoulder1  0 -2.42657e-020 -4.95415e-022
LeftArm  -9.21568 -17.125 -91.3818
LeftForeArm  30.6605 -41.8867 -9.10196
LeftHand  -0.316857 -9.63305 3.39148
RightShoulder  0 2.42657e-020 1.07489e-018
RightArm  -57.3701 36.3164 30.8714
RightForeArm  43.7225 19.8816 3.63571
RightHand  -2.62637 28.2927 -10.0257
LeftUpLeg  -56.8566 11.0569 15.0682
LeftLeg  74.0448 0.94461 2.62595
LeftFoot  -13.5771 -0.349966 -2.93928
LeftToes  -35.0368 1.71452e-006 7.46813e-008
